<svg width="123" height="123" viewBox="0 0 123 123" fill="none" xmlns="http://www.w3.org/2000/svg">
<path fill-rule="evenodd" clip-rule="evenodd" d="M10.3885 23.3733C10.3885 20.958 12.3464 19 14.7617 19H79.2674C81.6827 19 83.6407 20.958 83.6407 23.3733V26.6532H98.9472C100.568 26.6532 102.056 27.5495 102.813 28.9823L115.257 52.5178L122.205 62.4049C122.722 63.1413 123 64.0193 123 64.9193V88.9723C123 91.3876 121.042 93.3456 118.627 93.3456H107.147C104.732 93.3456 102.774 91.3876 102.774 88.9723C102.774 86.557 104.732 84.599 107.147 84.599H114.254V66.3022L109.248 59.1794H79.2674C76.8522 59.1794 74.8942 57.2214 74.8942 54.8061V27.7465H14.7617C12.3464 27.7465 10.3885 25.7886 10.3885 23.3733ZM83.6407 35.3998V50.4329H104.261L96.3125 35.3998H83.6407ZM9.8418 88.9723C9.8418 86.557 11.7998 84.599 14.2151 84.599H25.1482C27.5635 84.599 29.5215 86.557 29.5215 88.9723C29.5215 91.3876 27.5635 93.3456 25.1482 93.3456H14.2151C11.7998 93.3456 9.8418 91.3876 9.8418 88.9723ZM50.2945 88.9723C50.2945 86.557 52.2525 84.599 54.6678 84.599H77.6275C80.0428 84.599 82.0007 86.557 82.0007 88.9723C82.0007 91.3876 80.0428 93.3456 77.6275 93.3456H54.6678C52.2525 93.3456 50.2945 91.3876 50.2945 88.9723Z" fill="#F2F2F2"/>
<path fill-rule="evenodd" clip-rule="evenodd" d="M6.01196 39.227C6.01196 36.8117 7.96994 34.8537 10.3852 34.8537H42.6381C45.0534 34.8537 47.0114 36.8117 47.0114 39.227C47.0114 41.6423 45.0534 43.6002 42.6381 43.6002H10.3852C7.96994 43.6002 6.01196 41.6423 6.01196 39.227Z" fill="#F2F2F2"/>
<path fill-rule="evenodd" clip-rule="evenodd" d="M0 54.5348C0 52.1195 1.95798 50.1615 4.37327 50.1615H36.6261C39.0414 50.1615 40.9994 52.1195 40.9994 54.5348C40.9994 56.9501 39.0414 58.908 36.6261 58.908H4.37327C1.95798 58.908 0 56.9501 0 54.5348Z" fill="#F2F2F2"/>
<path fill-rule="evenodd" clip-rule="evenodd" d="M6.01196 69.8376C6.01196 67.4223 7.96994 65.4644 10.3852 65.4644H27.8783C30.2936 65.4644 32.2516 67.4223 32.2516 69.8376C32.2516 72.2529 30.2936 74.2109 27.8783 74.2109H10.3852C7.96994 74.2109 6.01196 72.2529 6.01196 69.8376Z" fill="#F2F2F2"/>
<path fill-rule="evenodd" clip-rule="evenodd" d="M39.9053 95.5304C43.5283 95.5304 46.4652 92.5934 46.4652 88.9705C46.4652 85.3476 43.5283 82.4106 39.9053 82.4106C36.2824 82.4106 33.3454 85.3476 33.3454 88.9705C33.3454 92.5934 36.2824 95.5304 39.9053 95.5304ZM39.9053 104.277C48.3588 104.277 55.2118 97.424 55.2118 88.9705C55.2118 80.517 48.3588 73.6641 39.9053 73.6641C31.4518 73.6641 24.5989 80.517 24.5989 88.9705C24.5989 97.424 31.4518 104.277 39.9053 104.277Z" fill="#F2F2F2"/>
<path fill-rule="evenodd" clip-rule="evenodd" d="M92.3851 95.5304C96.008 95.5304 98.945 92.5934 98.945 88.9705C98.945 85.3476 96.008 82.4106 92.3851 82.4106C88.7621 82.4106 85.8252 85.3476 85.8252 88.9705C85.8252 92.5934 88.7621 95.5304 92.3851 95.5304ZM92.3851 104.277C100.839 104.277 107.691 97.424 107.691 88.9705C107.691 80.517 100.839 73.6641 92.3851 73.6641C83.9315 73.6641 77.0786 80.517 77.0786 88.9705C77.0786 97.424 83.9315 104.277 92.3851 104.277Z" fill="#F2F2F2"/>
</svg>
