<svg width="123" height="123" viewBox="0 0 123 123" fill="none" xmlns="http://www.w3.org/2000/svg">
<path fill-rule="evenodd" clip-rule="evenodd" d="M55.6397 32C56.4094 32.0014 57.0947 32.4873 57.3509 33.2131L66.8346 60.0835L77.6465 38.4596L80.8989 40.0858L68.1717 65.5404C67.8454 66.1929 67.1606 66.5873 66.4325 66.5419C65.7043 66.4966 65.0737 66.0204 64.8309 65.3324L55.6262 39.2524L48.2577 59.8842C48.0127 60.5702 47.3821 61.0437 46.655 61.0876C45.928 61.1315 45.2449 60.7373 44.9192 60.0858L42.9091 56.0656L39.0808 63.7222C38.7682 64.3473 38.125 64.738 37.4261 64.727C36.7273 64.7161 36.0966 64.3056 35.8037 63.671L26.3733 43.2386L20.8513 52.9021L17.6941 51.0979L24.9668 38.3707C25.3046 37.7796 25.9442 37.4267 26.6243 37.4563C27.3044 37.4858 27.911 37.8927 28.1963 38.5108L37.5201 58.7124L41.2828 51.1869C41.5908 50.5709 42.2204 50.1818 42.9091 50.1818C43.5978 50.1818 44.2273 50.5709 44.5353 51.1869L46.2662 54.6487L53.9241 33.2067C54.1829 32.4819 54.8701 31.9986 55.6397 32Z" fill="#F2F2F2"/>
<path fill-rule="evenodd" clip-rule="evenodd" d="M49.7778 20.8889C33.8229 20.8889 20.8889 33.8229 20.8889 49.7778C20.8889 65.7327 33.8229 78.6667 49.7778 78.6667C57.7385 78.6667 64.9399 75.4526 70.1698 70.2408C75.4234 65.0052 78.6667 57.7744 78.6667 49.7778C78.6667 33.8229 65.7327 20.8889 49.7778 20.8889ZM12 49.7778C12 28.9137 28.9137 12 49.7778 12C70.6419 12 87.5556 28.9137 87.5556 49.7778C87.5556 58.6326 84.5049 66.7809 79.4038 73.2203C84.4336 78.276 90.9767 84.8175 96.6371 90.4683C100.059 93.8844 103.156 96.9728 105.398 99.2072C106.519 100.324 107.425 101.228 108.052 101.852L109.024 102.82L109.025 102.821C109.025 102.821 109.025 102.821 105.889 105.971C102.753 109.12 102.753 109.12 102.752 109.12L102.752 109.119L101.779 108.15C101.151 107.525 100.244 106.621 99.1225 105.503C96.8797 103.267 93.7809 100.177 90.357 96.759C84.7 91.1115 78.1495 84.5628 73.1064 79.4937C66.6849 84.5407 58.5803 87.5556 49.7778 87.5556C28.9137 87.5556 12 70.6419 12 49.7778ZM105.889 105.971L102.752 109.12C104.492 110.852 107.306 110.846 109.038 109.107C110.77 107.368 110.764 104.553 109.025 102.821L105.889 105.971Z" fill="#F2F2F2"/>
</svg>
