<svg width="123" height="123" viewBox="0 0 123 123" fill="none" xmlns="http://www.w3.org/2000/svg">
<path fill-rule="evenodd" clip-rule="evenodd" d="M90.7028 19.3792C85.7112 18.581 80.4215 20.1078 76.5774 23.9519C72.0156 28.5136 70.7154 35.1097 72.6972 40.8361C73.1464 42.1342 72.815 43.5748 71.8437 44.546L44.546 71.8437C43.5748 72.815 42.1342 73.1464 40.8361 72.6972C35.1097 70.7154 28.5136 72.0156 23.9519 76.5774C20.1078 80.4214 18.581 85.7112 19.3792 90.7028L26.6176 83.4644L29.1543 86.0011C26.6176 83.4644 26.619 83.4631 26.6203 83.4617L26.6231 83.4589L26.6291 83.453L26.6421 83.4401C26.6469 83.4354 26.652 83.4305 26.6573 83.4253C26.6623 83.4204 26.6676 83.4153 26.6731 83.4099C26.6959 83.3879 26.723 83.3621 26.7544 83.3329C26.817 83.2747 26.8969 83.2025 26.9932 83.1199C27.185 82.9554 27.4473 82.7448 27.7731 82.5178C28.4117 82.073 29.3666 81.5144 30.5715 81.1508C31.7969 80.781 33.3168 80.6042 34.9859 80.9939C36.6673 81.3864 38.2647 82.2992 39.7114 83.7458C42.776 86.8104 43.1242 90.2103 42.4043 92.8602C42.0748 94.0731 41.5511 95.0437 41.1281 95.6986C40.9126 96.0321 40.7118 96.3016 40.5544 96.4991C40.4753 96.5983 40.4062 96.6806 40.3503 96.7452C40.3352 96.7627 40.321 96.7789 40.3078 96.7939C40.2966 96.8065 40.2861 96.8183 40.2764 96.8291C40.2658 96.8409 40.2561 96.8516 40.2474 96.8611L40.235 96.8746L40.2293 96.8808L40.2266 96.8837C40.2253 96.8851 40.224 96.8865 37.5969 94.4437L40.224 96.8865C40.1944 96.9183 40.1643 96.9496 40.1335 96.9803L32.8952 104.219C37.8867 105.017 43.1765 103.49 47.0206 99.6461C51.5823 95.0843 52.8825 88.4882 50.9008 82.7618C50.4516 81.4638 50.783 80.0232 51.7542 79.0519L79.0519 51.7542C80.0232 50.783 81.4638 50.4516 82.7618 50.9008C88.4882 52.8825 95.0843 51.5823 99.6461 47.0206C103.49 43.1765 105.017 37.8867 104.219 32.8952L96.9803 40.1335L94.4437 37.5969C96.9803 40.1335 96.979 40.1349 96.9776 40.1362L96.9748 40.139L96.9689 40.1449L96.9558 40.1578C96.9497 40.1638 96.9432 40.1702 96.9362 40.177L96.9248 40.188C96.9129 40.1995 96.8999 40.212 96.8856 40.2255C96.8726 40.2379 96.8586 40.2511 96.8436 40.265C96.781 40.3233 96.7011 40.3954 96.6047 40.4781C96.413 40.6425 96.1507 40.8531 95.8248 41.0801C95.1863 41.525 94.2314 42.0836 93.0265 42.4472C91.8011 42.817 90.2812 42.9937 88.612 42.604C86.9306 42.2115 85.3332 41.2988 83.8866 39.8521C80.822 36.7876 80.4738 33.3876 81.1937 30.7377C81.5232 29.5249 82.0469 28.5543 82.4699 27.8994C82.6853 27.5658 82.8862 27.2964 83.0436 27.0989C83.1226 26.9997 83.1918 26.9173 83.2477 26.8527C83.2757 26.8204 83.3004 26.7924 83.3216 26.7688C83.3322 26.7571 83.3418 26.7464 83.3506 26.7368L83.363 26.7233L83.3686 26.7172L83.3713 26.7143C83.3726 26.7129 83.3739 26.7115 86.0011 29.1543L83.3739 26.7115C83.4035 26.6797 83.4337 26.6484 83.4644 26.6176L90.7028 19.3792ZM88.6405 31.5882L99.8539 20.3748C100.662 19.5672 101.036 18.4233 100.863 17.2943C100.69 16.1654 99.9897 15.1864 98.9772 14.6579C90.1261 10.0378 78.9442 11.4384 71.5041 18.8786C65.509 24.8737 63.4367 33.2996 65.2717 40.9714L59.9389 46.3042L45.403 31.7683L46.6656 30.5058C47.4429 29.7284 47.8209 28.6375 47.6912 27.5458C47.5615 26.4541 46.9383 25.4822 46.0004 24.9087L26.4418 12.9483C25.0278 12.0837 23.2055 12.3002 22.0336 13.4722L13.591 21.9148C12.419 23.0867 12.2025 24.909 13.0671 26.3229L25.0275 45.8816C25.601 46.8195 26.573 47.4427 27.6647 47.5724C28.7563 47.7021 29.8473 47.3241 30.6246 46.5467L31.8871 45.2842L46.423 59.8201L40.9714 65.2717C33.2996 63.4367 24.8737 65.509 18.8786 71.5041C11.4384 78.9442 10.0378 90.1261 14.6579 98.9772C15.1864 99.9897 16.1654 100.69 17.2943 100.863C18.4233 101.036 19.5672 100.661 20.3748 99.8539L31.6537 88.5749C31.6567 88.5724 31.6601 88.5694 31.6641 88.5659C31.7002 88.535 31.7726 88.4757 31.8744 88.4048C32.0911 88.2538 32.363 88.1045 32.6443 88.0196C32.9052 87.9409 33.131 87.9285 33.3548 87.9808C33.5664 88.0302 34.0093 88.1904 34.6381 88.8191C35.2658 89.4468 35.4457 89.9089 35.5068 90.1592C35.5713 90.4236 35.5594 90.6887 35.4805 90.9792C35.3967 91.2877 35.2476 91.5791 35.1012 91.8059C35.0414 91.8985 34.9899 91.968 34.9575 92.0098L23.744 103.223C22.9364 104.031 22.5617 105.175 22.7348 106.304C22.9079 107.433 23.6082 108.412 24.6207 108.94C33.4719 113.56 44.6537 112.16 52.0939 104.719C58.089 98.7242 60.1613 90.2983 58.3262 82.6265L59.5565 81.3962L85.4938 107.333C91.5574 113.397 101.389 113.397 107.452 107.333C113.516 101.27 113.516 91.4386 107.452 85.3749L81.515 59.4377L82.6265 58.3262C90.2983 60.1613 98.7242 58.089 104.719 52.0939C112.16 44.6537 113.56 33.4719 108.94 24.6207C108.412 23.6082 107.433 22.9079 106.304 22.7348C105.175 22.5617 104.031 22.9365 103.223 23.7441L91.9442 35.023C91.9413 35.0256 91.9378 35.0286 91.9339 35.032C91.8978 35.0629 91.8254 35.1222 91.7236 35.1931C91.5068 35.3441 91.235 35.4935 90.9536 35.5784C90.6928 35.6571 90.467 35.6694 90.2431 35.6172C90.0316 35.5678 89.5887 35.4076 88.9599 34.7788C88.3322 34.1511 88.1523 33.6891 88.0912 33.4388C88.0267 33.1743 88.0385 32.9092 88.1174 32.6188C88.2013 32.3102 88.3503 32.0188 88.4968 31.7921C88.5566 31.6995 88.608 31.6299 88.6405 31.5882ZM76.4417 64.511L64.6298 76.3229L90.5671 102.26C93.8288 105.522 99.1172 105.522 102.379 102.26C105.641 98.9984 105.641 93.71 102.379 90.4482L76.4417 64.511ZM51.4963 54.7468L54.8656 51.3775L40.3297 36.8416L36.9604 40.2109L51.4963 54.7468ZM28.7722 38.2526L38.3714 28.6533L25.1091 20.5433L20.6621 24.9903L28.7722 38.2526ZM73.5334 73.4146C74.9344 72.0136 77.2058 72.0136 78.6067 73.4146L95.9844 90.7923C97.3853 92.1932 97.3853 94.4646 95.9844 95.8656C94.5834 97.2665 92.312 97.2665 90.9111 95.8656L73.5334 78.4879C72.1325 77.0869 72.1325 74.8155 73.5334 73.4146Z" fill="#F2F2F2"/>
</svg>
