<svg width="123" height="123" viewBox="0 0 123 123" fill="none" xmlns="http://www.w3.org/2000/svg">
<path fill-rule="evenodd" clip-rule="evenodd" d="M61.5283 86.5837C79.9511 86.5837 94.8049 71.7446 94.8049 53.5391C94.8049 35.3336 79.9511 20.4945 61.5283 20.4945C43.1054 20.4945 28.2516 35.3336 28.2516 53.5391C28.2516 71.7446 43.1054 86.5837 61.5283 86.5837ZM61.5283 95.0782C84.5978 95.0782 103.299 76.4805 103.299 53.5391C103.299 30.5977 84.5978 12 61.5283 12C38.4587 12 19.7571 30.5977 19.7571 53.5391C19.7571 76.4805 38.4587 95.0782 61.5283 95.0782Z" fill="#F2F2F2"/>
<path fill-rule="evenodd" clip-rule="evenodd" d="M82.5777 38.9874C83.8217 40.2314 83.8217 42.2483 82.5777 43.4923L57.9792 68.0909C56.7352 69.3349 54.7183 69.3349 53.4743 68.0909L40.2467 54.8634C39.0027 53.6194 39.0027 51.6025 40.2467 50.3585C41.4907 49.1145 43.5076 49.1145 44.7516 50.3585L55.7267 61.3336L78.0728 38.9874C79.3168 37.7434 81.3337 37.7434 82.5777 38.9874Z" fill="#F2F2F2"/>
<path fill-rule="evenodd" clip-rule="evenodd" d="M31.9546 110.673C30.6967 110.394 29.7307 109.385 29.507 108.117L27.7806 98.3256L17.9897 100.052C16.7209 100.276 15.4422 99.7131 14.7499 98.6265C14.0577 97.5399 14.0882 96.1433 14.8272 95.0879L28.1377 76.0785L33.3564 79.7327L24.4569 92.4425L29.8114 91.4984C31.5439 91.1929 33.1961 92.3497 33.5016 94.0823L34.4457 99.4367L43.3452 86.7269L48.564 90.3811L35.2534 109.39C34.5144 110.446 33.2125 110.952 31.9546 110.673Z" fill="#F2F2F2"/>
<path fill-rule="evenodd" clip-rule="evenodd" d="M90.8442 110.673C92.1021 110.394 93.0681 109.385 93.2918 108.117L95.0182 98.3256L104.809 100.052C106.078 100.276 107.357 99.7131 108.049 98.6265C108.741 97.5399 108.711 96.1433 107.972 95.0879L94.6611 76.0785L89.4424 79.7327L98.3419 92.4425L92.9875 91.4984C91.2549 91.1929 89.6028 92.3497 89.2973 94.0823L88.3531 99.4367L79.4536 86.7269L74.2349 90.3811L87.5454 109.39C88.2844 110.446 89.5864 110.952 90.8442 110.673Z" fill="#F2F2F2"/>
</svg>
