<svg width="129" height="120" viewBox="0 0 129 120" fill="none" xmlns="http://www.w3.org/2000/svg">
<path d="M98.1772 3.46851e-06L28.8022 6.50099e-06C28.8022 0.973399 14.6781 25.1732 2.9873 45L124.193 45L98.1772 3.46851e-06Z" fill="#E2632A"/>
<path d="M29.003 120L98.3779 120C98.3779 119.027 112.502 94.8268 124.193 75L2.98734 75L29.003 120Z" fill="#131522"/>
<path d="M48.259 30.75H67.759V37C67.759 38.1046 66.8636 39 65.759 39H50.259C49.1545 39 48.259 38.1046 48.259 37V30.75Z" fill="#F2F2F2"/>
<path d="M75.259 7.75012C75.259 7.19784 75.7067 6.75012 76.259 6.75012H78.259C79.9159 6.75012 81.259 8.09327 81.259 9.75012V10.5001C81.259 12.157 79.9159 13.5001 78.259 13.5001H76.259C75.7067 13.5001 75.259 13.0524 75.259 12.5001V7.75012Z" fill="#F2F2F2"/>
<path d="M81.259 9.00012H90.009C90.5613 9.00012 91.009 9.44784 91.009 10.0001V10.2501C91.009 10.8024 90.5613 11.2501 90.009 11.2501H81.259V9.00012Z" fill="#F2F2F2"/>
<path d="M62.2397 17.2501H63.0912C63.6982 17.2501 64.1652 17.7865 64.0817 18.3877L63.7345 20.8877C63.6659 21.3821 63.2432 21.7501 62.744 21.7501H61.6147L62.2397 17.2501Z" fill="#F2F2F2"/>
<path fill-rule="evenodd" clip-rule="evenodd" d="M67.759 29.25H48.259C48.259 28.335 49.2358 27.9781 50.0828 27.6687C50.6243 27.4709 51.1127 27.2925 51.259 27C51.634 26.625 53.509 18 53.509 17.25C53.509 16.5 53.509 15.75 52.759 15.75H46.384C45.634 15.75 45.259 15.375 45.259 14.625C45.259 14.25 45.2229 12.2812 45.1869 10.3125C45.1508 8.34375 45.1147 6.375 45.1147 6C45.1147 5.25 46.009 4.5 46.759 4.5H68.509C69.634 4.5 73.759 6.375 73.759 6.75V13.5C73.759 13.875 70.009 15.75 68.509 15.75H62.509L61.009 26.25C61.2511 26.3025 61.5576 26.3594 61.9057 26.4241C64.0458 26.8216 67.759 27.5115 67.759 29.25ZM47.3647 6.00007C46.9505 6.00007 46.6147 6.33586 46.6147 6.75007C46.6147 7.16429 46.9505 7.50007 47.3647 7.50007H68.3647C68.779 7.50007 69.1147 7.16429 69.1147 6.75007C69.1147 6.33586 68.779 6.00007 68.3647 6.00007H47.3647Z" fill="#F2F2F2"/>
<g clip-path="url(#clip0)">
<path d="M66.2336 91.2372L61.437 105.957C61.2037 106.675 60.7579 107.299 60.1622 107.742C59.5666 108.185 58.851 108.424 58.1163 108.427C57.7368 108.427 57.3598 108.363 57.0006 108.237C56.4916 108.059 56.029 107.764 55.6482 107.373C55.2675 106.983 54.9788 106.508 54.8043 105.984C54.5366 105.187 54.5366 104.32 54.8043 103.523L58.8366 91.2372H50.9302C49.5322 91.2372 48.1915 91.8091 47.203 92.8271C46.2145 93.8451 45.6592 95.2258 45.6592 96.6655V113.131C45.6592 113.371 45.7517 113.602 45.9165 113.771C46.0812 113.941 46.3047 114.036 46.5377 114.036H63.9144C64.611 114.036 65.3008 113.894 65.9437 113.618C66.5867 113.342 67.1701 112.937 67.6603 112.427C68.1504 111.917 68.5376 111.312 68.7993 110.648C69.0611 109.983 69.1923 109.271 69.1853 108.554V92.1329C69.1853 91.8929 69.0928 91.6628 68.928 91.4931C68.7633 91.3235 68.5398 91.2281 68.3068 91.2281L66.2336 91.2372Z" fill="#F2F2F2"/>
<path d="M52.7046 91.961L54.5494 86.6684C54.9916 85.5689 55.8276 84.6869 56.8842 84.2051C57.9408 83.7234 59.1369 83.6789 60.2245 84.0809V84.0809C61.3263 84.493 62.2288 85.3311 62.7405 86.4172C63.2522 87.5032 63.3329 88.7519 62.9654 89.8983L58.1161 104.808" stroke="#F2F2F2" stroke-width="4" stroke-miterlimit="10" stroke-linecap="round"/>
<path d="M42.9094 114.036H38.921C38.1386 114.036 37.3639 113.877 36.6415 113.567C35.9192 113.257 35.2636 112.803 34.7123 112.232C34.1611 111.66 33.7253 110.981 33.4298 110.235C33.1344 109.489 32.9853 108.69 32.9911 107.884V104.727C32.9911 103.929 33.1439 103.138 33.4407 102.401C33.7375 101.664 34.1725 100.995 34.7208 100.431C35.2691 99.8669 35.9199 99.4199 36.6361 99.1154C37.3523 98.8108 38.1198 98.6547 38.8946 98.6559H42.5228C42.7022 98.6559 42.8743 98.7293 43.0011 98.8599C43.128 98.9906 43.1993 99.1678 43.1993 99.3525V103.324C43.1993 103.524 43.1227 103.716 42.9862 103.858C42.8497 104.001 42.6643 104.082 42.4701 104.084H38.8946C38.7261 104.084 38.5643 104.153 38.4442 104.274C38.3242 104.396 38.2556 104.562 38.2533 104.736V107.884C38.2533 108.066 38.3237 108.241 38.4489 108.37C38.5741 108.499 38.7439 108.572 38.921 108.572H42.8918C42.9848 108.57 43.0772 108.588 43.1634 108.624C43.2497 108.66 43.3282 108.713 43.3944 108.78C43.4606 108.848 43.5132 108.928 43.549 109.016C43.5849 109.105 43.6034 109.2 43.6034 109.295V113.285C43.6069 113.382 43.5916 113.478 43.5584 113.568C43.5252 113.659 43.4748 113.741 43.4101 113.811C43.3455 113.881 43.2678 113.937 43.1818 113.976C43.0958 114.015 43.0032 114.035 42.9094 114.036Z" fill="#F2F2F2"/>
<path d="M89.6542 110.417H70.9334V107.432C70.9334 107.269 70.9964 107.112 71.1084 106.997C71.2204 106.881 71.3724 106.816 71.5308 106.816H89.6103C90.1025 106.831 90.5907 106.722 91.0334 106.5C91.6645 106.177 92.1693 105.641 92.4643 104.982C92.7593 104.322 92.8269 103.579 92.6557 102.875C92.4845 102.171 92.0849 101.548 91.523 101.11C90.9612 100.672 90.2709 100.444 89.5663 100.465H71.5132C71.4363 100.465 71.3602 100.45 71.2893 100.419C71.2184 100.388 71.1541 100.344 71.1001 100.287C71.0461 100.231 71.0036 100.164 70.975 100.09C70.9464 100.017 70.9323 99.9384 70.9334 99.8592V96.8465H89.4873C90.9923 96.8079 92.4651 97.2993 93.6623 98.2393C94.8596 99.1793 95.7096 100.512 96.0721 102.017C96.4346 103.521 96.2878 105.109 95.656 106.516C95.0242 107.923 93.9452 109.066 92.5972 109.757C91.6822 110.218 90.6725 110.445 89.6542 110.417Z" fill="#F2F2F2"/>
<path d="M73.5955 96.8465C74.1688 96.5265 74.6953 96.1244 75.1592 95.6523C75.7478 95.019 76.1958 94.6028 76.5911 94.6209C77.2061 94.6209 77.0128 95.8785 77.048 96.2856C77.0831 96.6927 77.6893 96.8375 77.6893 96.8375L73.5955 96.8465Z" fill="#F2F2F2"/>
<path d="M77.6716 96.8465C78.2383 96.5279 78.7587 96.1289 79.2178 95.6613C79.7976 95.028 80.2544 94.6119 80.6497 94.63C81.2647 94.63 81.0714 95.8875 81.1065 96.2946C81.1417 96.7018 81.7391 96.8465 81.7391 96.8465H77.6716Z" fill="#F2F2F2"/>
<path d="M70.9336 96.8465H73.5691C73.5691 96.8465 72.9541 96.7018 72.9278 96.2946C72.9014 95.8875 73.3143 94.4852 72.4798 94.6299C72.041 94.805 71.6612 95.1078 71.3866 95.5014C71.1121 95.895 70.9547 96.3624 70.9336 96.8465Z" fill="#F2F2F2"/>
<path d="M81.739 96.8465C82.3079 96.5272 82.8312 96.1283 83.294 95.6613C83.8738 95.028 84.3218 94.6119 84.7259 94.63C85.3409 94.63 85.1476 95.8875 85.1739 96.2946C85.2003 96.7018 85.8152 96.8465 85.8152 96.8465H81.739Z" fill="#F2F2F2"/>
<path d="M85.8152 96.8465C86.3841 96.5272 86.9073 96.1283 87.3701 95.6613C87.9499 95.028 88.398 94.6119 88.8021 94.63C89.417 94.63 89.2238 95.8875 89.2501 96.2946C89.2765 96.7018 89.8914 96.9008 89.8914 96.9008L85.8152 96.8465Z" fill="#F2F2F2"/>
<path d="M89.8389 96.8465C90.5259 96.6796 91.1987 96.4558 91.8506 96.177C92.6149 95.806 93.1771 95.5799 93.5461 95.7427C94.1084 95.996 93.4934 97.0817 93.388 97.4707C93.2826 97.8598 93.713 98.2759 93.713 98.2759L89.8389 96.8465Z" fill="#F2F2F2"/>
<path d="M93.6689 98.3755C94.2409 98.685 94.8535 98.9074 95.4874 99.0359C96.3132 99.1807 96.9018 99.3345 97.1127 99.6783C97.4377 100.221 96.4186 100.728 96.1112 100.972C95.8037 101.216 96.0145 101.75 96.0145 101.75L93.6689 98.3755Z" fill="#F2F2F2"/>
<path d="M96.0146 101.75C96.2312 102.348 96.5663 102.894 96.9985 103.351C97.6134 103.958 98.0175 104.419 98 104.826C98 105.469 96.7789 105.269 96.3835 105.297C95.9882 105.324 95.8477 105.957 95.8477 105.957L96.0146 101.75Z" fill="#F2F2F2"/>
<path d="M95.9618 105.658C95.813 106.252 95.813 106.874 95.9618 107.468C96.1814 108.309 96.2956 108.924 96.076 109.277C95.7422 109.811 94.811 108.997 94.4596 108.816C94.1082 108.635 93.6426 109.087 93.6426 109.087L95.9618 105.658Z" fill="#F2F2F2"/>
<path d="M93.9853 108.825C93.5537 109.191 93.246 109.688 93.1068 110.245C92.9048 111.087 92.7027 111.675 92.3513 111.865C91.8067 112.154 91.385 110.96 91.1654 110.643C90.9457 110.327 90.2869 110.408 90.2869 110.408L93.9853 108.825Z" fill="#F2F2F2"/>
<path d="M90.3218 110.417C89.7567 110.738 89.2366 111.137 88.7757 111.603C88.1959 112.236 87.7391 112.652 87.3437 112.643C86.7288 112.643 86.9221 111.376 86.8957 110.969C86.8693 110.562 86.2544 110.417 86.2544 110.417H90.3218Z" fill="#F2F2F2"/>
<path d="M86.2545 110.417C85.6856 110.737 85.1623 111.136 84.6995 111.603C84.1197 112.236 83.6717 112.652 83.2676 112.643C82.6526 112.643 82.8459 111.376 82.8195 110.969C82.7932 110.562 82.187 110.417 82.187 110.417H86.2545Z" fill="#F2F2F2"/>
<path d="M82.1871 110.417C81.6182 110.737 81.0949 111.136 80.6321 111.603C80.0523 112.236 79.6043 112.652 79.2002 112.643C78.594 112.643 78.7785 111.376 78.7521 110.969C78.7258 110.562 78.1108 110.417 78.1108 110.417H82.1871Z" fill="#F2F2F2"/>
<path d="M78.1021 110.417C77.5354 110.736 77.015 111.135 76.5559 111.602C75.9674 112.236 75.5193 112.652 75.124 112.643C74.5091 112.643 74.7023 111.376 74.6672 110.969C74.632 110.562 74.0259 110.372 74.0259 110.372L78.1021 110.417Z" fill="#F2F2F2"/>
<path d="M74.1839 110.417C73.5728 110.749 73.0132 111.173 72.5235 111.675C71.9349 112.299 71.4869 112.724 71.0916 112.706C70.4766 112.706 70.9774 111.575 70.9774 111.132V110.417H74.1839Z" fill="#F2F2F2"/>
</g>
<path d="M10.5702 51C12.222 51 13.663 51.2812 14.8931 51.8435C16.1233 52.4058 17.0634 53.1703 17.7136 54.1368C18.3638 55.1033 18.6889 56.184 18.6889 57.379C18.6889 59.3472 18.0739 60.8936 16.8438 62.0183C15.6136 63.1254 13.5224 63.6789 10.5702 63.6789H7.09072V68.74C7.09072 68.9333 7.02043 69.1002 6.87984 69.2408C6.73926 69.3814 6.57231 69.4517 6.37901 69.4517H0.711708C0.518405 69.4517 0.351461 69.3814 0.210876 69.2408C0.0702921 69.1002 0 68.9333 0 68.74V51.7117C0 51.5184 0.0702921 51.3515 0.210876 51.2109C0.351461 51.0703 0.518405 51 0.711708 51H10.5702ZM10.4647 58.8024C10.8865 58.8024 11.2204 58.6794 11.4664 58.4334C11.7124 58.1698 11.8354 57.8271 11.8354 57.4054C11.8354 56.966 11.7124 56.6058 11.4664 56.3246C11.2204 56.0435 10.8865 55.9029 10.4647 55.9029H7.11708V58.8024H10.4647Z" fill="#131522"/>
<path d="M38.8173 64.3116C39.0106 64.3116 39.1776 64.3819 39.3181 64.5224C39.4587 64.663 39.529 64.83 39.529 65.0233V68.74C39.529 68.9333 39.4587 69.1002 39.3181 69.2408C39.1776 69.3814 39.0106 69.4517 38.8173 69.4517H22.1581C21.9648 69.4517 21.7978 69.3814 21.6573 69.2408C21.5167 69.1002 21.4464 68.9333 21.4464 68.74V51.7117C21.4464 51.5184 21.5167 51.3515 21.6573 51.2109C21.7978 51.0703 21.9648 51 22.1581 51H38.5537C38.747 51 38.914 51.0703 39.0546 51.2109C39.1951 51.3515 39.2654 51.5184 39.2654 51.7117V55.4284C39.2654 55.6217 39.1951 55.7887 39.0546 55.9292C38.914 56.0698 38.747 56.1401 38.5537 56.1401H28.2999V57.8008H37.1039C37.2972 57.8008 37.4642 57.8711 37.6048 58.0116C37.7454 58.1522 37.8157 58.3192 37.8157 58.5125V61.9392C37.8157 62.1325 37.7454 62.2995 37.6048 62.44C37.4642 62.5806 37.2972 62.6509 37.1039 62.6509H28.2999V64.3116H38.8173Z" fill="#131522"/>
<path d="M56.1252 51.7117C56.3888 51.2372 56.7667 51 57.2587 51H62.0825C62.2758 51 62.4427 51.0703 62.5833 51.2109C62.7239 51.3515 62.7942 51.5184 62.7942 51.7117V68.74C62.7942 68.9333 62.7239 69.1002 62.5833 69.2408C62.4427 69.3814 62.2758 69.4517 62.0825 69.4517H57.3114C57.1181 69.4517 56.9512 69.3814 56.8106 69.2408C56.67 69.1002 56.5997 68.9333 56.5997 68.74V60.5685L54.6755 64.3643C54.6227 64.4873 54.4997 64.6279 54.3064 64.786C54.1131 64.9442 53.8671 65.0233 53.5684 65.0233H51.7759C51.4772 65.0233 51.2311 64.9442 51.0378 64.786C50.8445 64.6279 50.7215 64.4873 50.6688 64.3643L48.7446 60.5685V68.74C48.7446 68.9333 48.6743 69.1002 48.5337 69.2408C48.3931 69.3814 48.2262 69.4517 48.0329 69.4517H43.2618C43.0685 69.4517 42.9015 69.3814 42.761 69.2408C42.6204 69.1002 42.5501 68.9333 42.5501 68.74V51.7117C42.5501 51.5184 42.6204 51.3515 42.761 51.2109C42.9015 51.0703 43.0685 51 43.2618 51H48.0856C48.5776 51 48.9554 51.2372 49.219 51.7117L52.6721 58.038L56.1252 51.7117Z" fill="#131522"/>
<path d="M84.1615 51C84.3548 51 84.5217 51.0703 84.6623 51.2109C84.8029 51.3515 84.8732 51.5184 84.8732 51.7117V55.9556C84.8732 56.1489 84.8029 56.3158 84.6623 56.4564C84.5217 56.597 84.3548 56.6673 84.1615 56.6673H78.4942V68.74C78.4942 68.9333 78.4239 69.1002 78.2833 69.2408C78.1427 69.3814 77.9758 69.4517 77.7825 69.4517H72.3524C72.1591 69.4517 71.9922 69.3814 71.8516 69.2408C71.711 69.1002 71.6407 68.9333 71.6407 68.74V56.6673H65.9734C65.7801 56.6673 65.6132 56.597 65.4726 56.4564C65.332 56.3158 65.2617 56.1489 65.2617 55.9556V51.7117C65.2617 51.5184 65.332 51.3515 65.4726 51.2109C65.6132 51.0703 65.7801 51 65.9734 51H84.1615Z" fill="#131522"/>
<path d="M106.926 51C107.102 51 107.242 51.0615 107.348 51.1845C107.471 51.29 107.532 51.413 107.532 51.5536C107.532 51.7117 107.479 51.9138 107.374 52.1598L101.68 64.0743C100.977 65.5505 100.327 66.6576 99.7297 67.3956C99.1322 68.1337 98.3941 68.6609 97.5155 68.9772C96.6544 69.2935 95.4682 69.4517 93.957 69.4517H90.9256C90.7323 69.4517 90.5654 69.3814 90.4248 69.2408C90.2842 69.1002 90.2139 68.9333 90.2139 68.74V64.5224C90.2139 64.3291 90.2842 64.1622 90.4248 64.0216C90.5654 63.881 90.7323 63.8107 90.9256 63.8107H93.0607C93.5176 63.8107 93.913 63.7404 94.2469 63.5999L87.8152 51.8171C87.7625 51.7293 87.7361 51.6414 87.7361 51.5536C87.7361 51.3954 87.7976 51.2636 87.9206 51.1582C88.0612 51.0527 88.2369 51 88.4478 51H94.2206C94.4314 51 94.5984 51.0527 94.7214 51.1582C94.8444 51.2636 94.9586 51.4218 95.0641 51.6326L97.6473 57.2472L100.257 51.6326C100.45 51.2109 100.749 51 101.153 51H106.926Z" fill="#131522"/>
<path d="M110.369 69.7153C110.175 69.7153 110 69.645 109.841 69.5044C109.701 69.3638 109.631 69.1969 109.631 69.0036V64.786C109.631 64.5927 109.701 64.4258 109.841 64.2852C109.982 64.1446 110.149 64.0743 110.342 64.0743C110.975 64.0743 111.458 63.3363 111.792 61.8601C112.126 60.384 112.293 58.2489 112.293 55.4548V51.7117C112.293 51.5184 112.363 51.3515 112.504 51.2109C112.644 51.0703 112.811 51 113.005 51H127.977C128.17 51 128.337 51.0703 128.478 51.2109C128.618 51.3515 128.689 51.5184 128.689 51.7117V68.74C128.689 68.9333 128.618 69.1002 128.478 69.2408C128.337 69.3814 128.17 69.4517 127.977 69.4517H123.074C122.881 69.4517 122.714 69.3814 122.573 69.2408C122.433 69.1002 122.362 68.9333 122.362 68.74V56.6673H118.356V58.0116C118.356 62.0534 117.679 65.0145 116.326 66.8948C114.973 68.7751 112.987 69.7153 110.369 69.7153Z" fill="#131522"/>
<defs>
<clipPath id="clip0">
<rect width="65" height="32" fill="white" transform="translate(33 82)"/>
</clipPath>
</defs>
</svg>
