<svg width="26" height="26" viewBox="0 0 26 26" fill="none" xmlns="http://www.w3.org/2000/svg">
<path d="M23.0095 26H22.8395C3.18953 24.87 0.399525 8.29 0.00952482 3.23C-0.0218999 2.83658 0.0246135 2.44082 0.1464 2.06541C0.268186 1.69 0.462851 1.3423 0.719242 1.04225C0.975633 0.7422 1.28871 0.495688 1.64054 0.316839C1.99236 0.137991 2.37602 0.0303218 2.76953 9.37591e-07H8.27953C8.68008 -0.000386826 9.07153 0.119511 9.40316 0.344163C9.73479 0.568815 9.99132 0.88787 10.1395 1.26L11.6595 5C11.8059 5.36355 11.8422 5.76208 11.764 6.14609C11.6857 6.5301 11.4964 6.88267 11.2195 7.16L9.08953 9.31C9.42224 11.2007 10.3277 12.9437 11.6834 14.303C13.0391 15.6622 14.7797 16.5723 16.6695 16.91L18.8395 14.76C19.121 14.4862 19.4769 14.3013 19.8628 14.2283C20.2487 14.1554 20.6475 14.1977 21.0095 14.35L24.7795 15.86C25.146 16.0129 25.4588 16.2714 25.6778 16.6027C25.8969 16.9339 26.0123 17.3229 26.0095 17.72V23C26.0095 23.7956 25.6935 24.5587 25.1308 25.1213C24.5682 25.6839 23.8052 26 23.0095 26ZM3.00952 2C2.74431 2 2.48995 2.10536 2.30242 2.29289C2.11488 2.48043 2.00952 2.73478 2.00952 3V3.08C2.46952 9 5.41953 23 22.9495 24C23.0809 24.0081 23.2126 23.9902 23.337 23.9473C23.4615 23.9045 23.5762 23.8374 23.6747 23.7501C23.7732 23.6628 23.8535 23.5568 23.9109 23.4384C23.9684 23.32 24.0019 23.1914 24.0095 23.06V17.72L20.2395 16.21L17.3695 19.06L16.8895 19C8.18952 17.91 7.00952 9.21 7.00952 9.12L6.94952 8.64L9.78953 5.77L8.28953 2H3.00952Z" fill="black"/>
</svg>
