<svg width="588" height="100" viewBox="0 0 588 100" fill="none" xmlns="http://www.w3.org/2000/svg">
<path d="M48.297 0C55.8446 0 62.4287 1.50235 68.0493 4.50704C73.6699 7.51174 77.9657 11.5962 80.9366 16.7606C83.9074 21.9249 85.3929 27.6995 85.3929 34.0845C85.3929 44.6009 82.5826 52.8639 76.962 58.8732C71.3414 64.7887 61.7864 67.7465 48.297 67.7465H32.3987V94.7887C32.3987 95.8216 32.0775 96.7136 31.4352 97.4648C30.7928 98.216 30.03 98.5915 29.1468 98.5915H3.25192C2.36868 98.5915 1.60588 98.216 0.96353 97.4648C0.321177 96.7136 0 95.8216 0 94.7887V3.80282C0 2.76996 0.321177 1.87794 0.96353 1.12676C1.60588 0.375588 2.36868 0 3.25192 0H48.297ZM47.8152 41.6901C49.7423 41.6901 51.2678 41.0329 52.392 39.7183C53.5161 38.3099 54.0781 36.4789 54.0781 34.2254C54.0781 31.8779 53.5161 29.9531 52.392 28.4507C51.2678 26.9484 49.7423 26.1972 47.8152 26.1972H32.5192V41.6901H47.8152Z" fill="#E2632A"/>
<path d="M177.363 71.1268C178.246 71.1268 179.009 71.5023 179.651 72.2535C180.294 73.0047 180.615 73.8967 180.615 74.9296V94.7887C180.615 95.8216 180.294 96.7136 179.651 97.4648C179.009 98.216 178.246 98.5915 177.363 98.5915H101.244C100.361 98.5915 99.598 98.216 98.9557 97.4648C98.3133 96.7136 97.9922 95.8216 97.9922 94.7887V3.80282C97.9922 2.76996 98.3133 1.87794 98.9557 1.12676C99.598 0.375588 100.361 0 101.244 0H176.159C177.042 0 177.805 0.375588 178.447 1.12676C179.089 1.87794 179.41 2.76996 179.41 3.80282V23.662C179.41 24.6948 179.089 25.5869 178.447 26.338C177.805 27.0892 177.042 27.4648 176.159 27.4648H129.307V36.338H169.534C170.418 36.338 171.18 36.7136 171.823 37.4648C172.465 38.216 172.786 39.108 172.786 40.1408V58.4507C172.786 59.4836 172.465 60.3756 171.823 61.1268C171.18 61.8779 170.418 62.2535 169.534 62.2535H129.307V71.1268H177.363Z" fill="#E2632A"/>
<path d="M256.446 3.80282C257.65 1.26761 259.377 0 261.625 0H283.666C284.549 0 285.312 0.375588 285.954 1.12676C286.596 1.87794 286.917 2.76996 286.917 3.80282V94.7887C286.917 95.8216 286.596 96.7136 285.954 97.4648C285.312 98.216 284.549 98.5915 283.666 98.5915H261.866C260.982 98.5915 260.22 98.216 259.577 97.4648C258.935 96.7136 258.614 95.8216 258.614 94.7887V51.1268L249.822 71.4084C249.581 72.0657 249.019 72.8169 248.135 73.662C247.252 74.507 246.128 74.9296 244.763 74.9296H236.573C235.208 74.9296 234.084 74.507 233.201 73.662C232.317 72.8169 231.755 72.0657 231.515 71.4084L222.722 51.1268V94.7887C222.722 95.8216 222.401 96.7136 221.759 97.4648C221.116 98.216 220.354 98.5915 219.47 98.5915H197.671C196.787 98.5915 196.024 98.216 195.382 97.4648C194.74 96.7136 194.419 95.8216 194.419 94.7887V3.80282C194.419 2.76996 194.74 1.87794 195.382 1.12676C196.024 0.375588 196.787 0 197.671 0H219.711C221.959 0 223.686 1.26761 224.89 3.80282L240.668 37.6056L256.446 3.80282Z" fill="#E2632A"/>
<path d="M384.548 0C385.432 0 386.194 0.375588 386.837 1.12676C387.479 1.87794 387.8 2.76996 387.8 3.80282V26.4789C387.8 27.5117 387.479 28.4038 386.837 29.1549C386.194 29.9061 385.432 30.2817 384.548 30.2817H358.653V94.7887C358.653 95.8216 358.332 96.7136 357.69 97.4648C357.048 98.216 356.285 98.5915 355.402 98.5915H330.591C329.707 98.5915 328.945 98.216 328.302 97.4648C327.66 96.7136 327.339 95.8216 327.339 94.7887V30.2817H301.444C300.561 30.2817 299.798 29.9061 299.155 29.1549C298.513 28.4038 298.192 27.5117 298.192 26.4789V3.80282C298.192 2.76996 298.513 1.87794 299.155 1.12676C299.798 0.375588 300.561 0 301.444 0H384.548Z" fill="#E2632A"/>
<path d="M488.563 0C489.365 0 490.008 0.32864 490.49 0.98592C491.052 1.5493 491.333 2.20657 491.333 2.95775C491.333 3.80282 491.092 4.88263 490.61 6.19719L464.595 69.8592C461.383 77.7465 458.412 83.662 455.682 87.6056C452.952 91.5493 449.58 94.3662 445.565 96.0563C441.631 97.7465 436.211 98.5915 429.305 98.5915H415.455C414.571 98.5915 413.809 98.216 413.166 97.4648C412.524 96.7136 412.203 95.8216 412.203 94.7887V72.2535C412.203 71.2207 412.524 70.3286 413.166 69.5775C413.809 68.8263 414.571 68.4507 415.455 68.4507H425.21C427.298 68.4507 429.105 68.0751 430.63 67.3239L401.243 4.3662C401.002 3.89672 400.881 3.42723 400.881 2.95775C400.881 2.11268 401.162 1.40845 401.724 0.845076C402.367 0.281692 403.17 0 404.133 0H430.51C431.473 0 432.236 0.281692 432.798 0.845076C433.36 1.40845 433.882 2.25352 434.364 3.38028L446.167 33.3803L458.091 3.38028C458.974 1.12676 460.339 0 462.186 0H488.563Z" fill="#E2632A"/>
<path d="M504.293 100C503.41 100 502.607 99.6244 501.884 98.8732C501.242 98.1221 500.921 97.23 500.921 96.1972V73.662C500.921 72.6291 501.242 71.7371 501.884 70.9859C502.527 70.2347 503.29 69.8592 504.173 69.8592C507.063 69.8592 509.272 65.9155 510.797 58.0282C512.323 50.1409 513.086 38.7324 513.086 23.8028V3.80282C513.086 2.76996 513.407 1.87794 514.049 1.12676C514.691 0.375588 515.454 0 516.337 0H584.748C585.631 0 586.394 0.375588 587.036 1.12676C587.679 1.87794 588 2.76996 588 3.80282V94.7887C588 95.8216 587.679 96.7136 587.036 97.4648C586.394 98.216 585.631 98.5915 584.748 98.5915H562.346C561.463 98.5915 560.7 98.216 560.058 97.4648C559.415 96.7136 559.094 95.8216 559.094 94.7887V30.2817H540.787V37.4648C540.787 59.061 537.696 74.8826 531.513 84.9296C525.33 94.9765 516.257 100 504.293 100Z" fill="#E2632A"/>
</svg>
